<svg width="1260" height="1260" viewBox="0 0 1260 1260" fill="none" xmlns="http://www.w3.org/2000/svg">
<path d="M962.135 962.135L961.93 961.678L961.756 961.756L961.678 961.93L962.135 962.135ZM297.865 297.865L298.07 298.322L298.244 298.244L298.322 298.07L297.865 297.865ZM257.504 443.843L258.001 443.902L258.143 442.704L257.195 443.451L257.504 443.843ZM816.157 1002.5L816.549 1002.81L817.296 1001.86L816.098 1002L816.157 1002.5ZM881.333 881.333L881.489 881.807L881.728 881.728L881.807 881.489L881.333 881.333ZM378.668 378.668L378.511 378.193L378.272 378.272L378.193 378.511L378.668 378.668ZM1002.5 816.157L1002 816.098L1001.86 817.296L1002.81 816.549L1002.5 816.157ZM443.843 257.504L443.451 257.195L442.704 258.143L443.902 258.001L443.843 257.504ZM1259.5 503.5C1259.5 225.701 1034.3 0.5 756.5 0.5V1.5C1033.75 1.5 1258.5 226.253 1258.5 503.5H1259.5ZM962.339 962.591C1137.51 883.931 1259.5 707.963 1259.5 503.5H1258.5C1258.5 707.555 1136.75 883.174 961.93 961.678L962.339 962.591ZM503.5 1259.5C707.963 1259.5 883.931 1137.51 962.591 962.339L961.678 961.93C883.174 1136.75 707.555 1258.5 503.5 1258.5V1259.5ZM0.5 756.5C0.5 1034.3 225.701 1259.5 503.5 1259.5V1258.5C226.253 1258.5 1.5 1033.75 1.5 756.5H0.5ZM297.661 297.409C122.493 376.069 0.5 552.037 0.5 756.5H1.5C1.5 552.445 123.249 376.826 298.07 298.322L297.661 297.409ZM756.5 0.5C552.037 0.5 376.069 122.493 297.409 297.661L298.322 298.07C376.826 123.249 552.445 1.5 756.5 1.5V0.5ZM106.188 756.5C106.188 629.821 165.473 516.989 257.814 444.236L257.195 443.451C164.624 516.385 105.188 629.502 105.188 756.5H106.188ZM503.5 1153.81C284.07 1153.81 106.188 975.93 106.188 756.5H105.188C105.188 976.482 283.518 1154.81 503.5 1154.81V1153.81ZM815.764 1002.19C743.011 1094.53 630.179 1153.81 503.5 1153.81V1154.81C630.498 1154.81 743.615 1095.38 816.549 1002.81L815.764 1002.19ZM756.5 1006.5C776.705 1006.5 796.633 1005.31 816.215 1002.99L816.098 1002C796.554 1004.31 776.666 1005.5 756.5 1005.5V1006.5ZM253.5 503.5C253.5 781.299 478.701 1006.5 756.5 1006.5V1005.5C479.253 1005.5 254.5 780.747 254.5 503.5H253.5ZM257.008 443.785C254.691 463.367 253.5 483.295 253.5 503.5H254.5C254.5 483.334 255.689 463.446 258.001 443.902L257.008 443.785ZM881.176 880.858C841.965 893.806 800.051 900.812 756.5 900.812V901.812C800.159 901.812 842.179 894.788 881.489 881.807L881.176 880.858ZM756.5 900.812C537.07 900.812 359.188 722.93 359.188 503.5H358.188C358.188 723.482 536.518 901.812 756.5 901.812V900.812ZM359.188 503.5C359.188 459.949 366.195 418.035 379.142 378.824L378.193 378.511C365.212 417.821 358.188 459.841 358.188 503.5H359.188ZM378.824 379.142C418.035 366.195 459.949 359.188 503.5 359.188V358.188C459.841 358.188 417.821 365.212 378.511 378.193L378.824 379.142ZM503.5 359.188C722.93 359.188 900.812 537.07 900.812 756.5H901.812C901.812 536.518 723.482 358.188 503.5 358.188V359.188ZM900.812 756.5C900.812 800.051 893.806 841.965 880.858 881.176L881.807 881.489C894.788 842.179 901.812 800.159 901.812 756.5H900.812ZM1002.99 816.215C1005.31 796.633 1006.5 776.705 1006.5 756.5H1005.5C1005.5 776.666 1004.31 796.554 1002 816.098L1002.99 816.215ZM1006.5 756.5C1006.5 478.701 781.299 253.5 503.5 253.5V254.5C780.747 254.5 1005.5 479.253 1005.5 756.5H1006.5ZM503.5 253.5C483.295 253.5 463.367 254.691 443.785 257.008L443.902 258.001C463.446 255.689 483.334 254.5 503.5 254.5V253.5ZM444.236 257.814C516.989 165.473 629.821 106.188 756.5 106.188V105.188C629.502 105.188 516.385 164.624 443.451 257.195L444.236 257.814ZM756.5 106.188C975.93 106.188 1153.81 284.07 1153.81 503.5H1154.81C1154.81 283.518 976.482 105.188 756.5 105.188V106.188ZM1153.81 503.5C1153.81 630.179 1094.53 743.011 1002.19 815.764L1002.81 816.549C1095.38 743.615 1154.81 630.498 1154.81 503.5H1153.81Z" fill="#0588F0" fill-opacity="0.226781"/>
</svg>
