<svg xmlns="http://www.w3.org/2000/svg" width="128" height="128" viewBox="0 0 128 128"><path fill="#0076D4" d="M73.6,16 C94.8077344,16 112,33.1922656 112,54.4 C112,69.9732604 102.729489,83.381277 89.4060069,89.4065115 C83.381277,102.729489 69.9732604,112 54.4,112 C33.1922656,112 16,94.8077344 16,73.6 C16,58.0267396 25.2705105,44.618723 38.5939931,38.5934885 C44.618723,25.2705105 58.0267396,16 73.6,16 Z M35.4714166,49.8106159 L35.3343318,49.9203809 C28.4220656,55.4928485 24,64.0300099 24,73.6 C24,90.3894564 37.6105436,104 54.4,104 C64.0332947,104 72.6200512,99.5192379 78.1898133,92.52817 C76.684573,92.7078029 75.1530534,92.8 73.6,92.8 C52.3922656,92.8 35.2,75.6077344 35.2,54.4 C35.2,52.8469466 35.2921971,51.315427 35.4714166,49.8106159 Z M54.4,43.2 C51.0305938,43.2 47.7892178,43.748162 44.7601863,44.7601715 C43.748162,47.7892178 43.2,51.0305938 43.2,54.4 C43.2,71.1894564 56.8105436,84.8 73.6,84.8 C76.9694062,84.8 80.2107822,84.251838 83.2398137,83.2398285 C84.251838,80.2107822 84.8,76.9694062 84.8,73.6 C84.8,56.8105436 71.1894564,43.2 54.4,43.2 Z M73.6,24 C63.9667053,24 55.3799488,28.4807621 49.8101867,35.47183 C51.315427,35.2921971 52.8469466,35.2 54.4,35.2 C75.6077344,35.2 92.8,52.3922656 92.8,73.6 C92.8,75.1530534 92.7078029,76.684573 92.5285834,78.1893841 C99.5192379,72.6200512 104,64.0332947 104,54.4 C104,37.6105436 90.3894564,24 73.6,24 Z"/></svg>