<svg width="1154" height="497" viewBox="0 0 1154 497" fill="none" xmlns="http://www.w3.org/2000/svg">
<path fill-rule="evenodd" clip-rule="evenodd" d="M692.4 0C947.335 0 1154 206.665 1154 461.6C1154 648.802 1042.56 809.976 882.406 882.406C809.976 1042.56 648.802 1154 461.6 1154C206.665 1154 0 947.335 0 692.4C0 505.198 111.437 344.024 271.594 271.594C344.024 111.437 505.198 0 692.4 0ZM406.43 234.063C473.384 150.027 576.602 96.1667 692.4 96.1667C894.223 96.1667 1057.83 259.777 1057.83 461.6C1057.83 577.398 1003.97 680.616 919.937 747.57C922.092 729.48 923.2 711.069 923.2 692.4C923.2 437.465 716.535 230.8 461.6 230.8C442.931 230.8 424.52 231.908 406.43 234.063ZM234.063 406.43C150.027 473.384 96.1667 576.602 96.1667 692.4C96.1667 894.223 259.777 1057.83 461.6 1057.83C577.398 1057.83 680.616 1003.97 747.57 919.937C729.48 922.092 711.069 923.2 692.4 923.2C437.465 923.2 230.8 716.535 230.8 461.6C230.8 442.931 231.908 424.52 234.063 406.43ZM808.279 808.279C771.867 820.444 732.903 827.033 692.4 827.033C490.577 827.033 326.967 663.423 326.967 461.6C326.967 421.097 333.556 382.133 345.721 345.721C382.133 333.556 421.097 326.967 461.6 326.967C663.423 326.967 827.033 490.577 827.033 692.4C827.033 732.903 820.444 771.867 808.279 808.279Z" fill="#0588F0"/>
</svg>
